<?xml version="1.0" standalone="no"?>
<!DOCTYPE svg PUBLIC "-//W3C//DTD SVG 20010904//EN"
 "http://www.w3.org/TR/2001/REC-SVG-20010904/DTD/svg10.dtd">
<svg version="1.0" xmlns="http://www.w3.org/2000/svg"
 width="240.000000pt" height="240.000000pt" viewBox="0 0 240.000000 240.000000"
 preserveAspectRatio="xMidYMid meet">
<metadata>
Created by potrace 1.11, written by Peter Selinger 2001-2013
</metadata>
<g transform="translate(0.000000,240.000000) scale(0.100000,-0.100000)"
fill="#000000" stroke="none">
<path d="M1000 2383 c-500 -86 -888 -473 -985 -983 -13 -68 -12 -305 1 -392
73 -478 458 -881 939 -983 104 -22 316 -28 425 -11 249 39 470 149 653 325
183 176 294 385 353 666 10 49 13 307 4 355 -5 25 -11 63 -14 84 -10 60 -61
207 -101 287 -59 120 -124 209 -230 314 -172 173 -355 274 -590 327 -116 26
-334 32 -455 11z"/>
</g>
</svg>
